<svg xmlns="http://www.w3.org/2000/svg" viewBox="0 0 24 24" width="512" height="512">
    <defs>
        <linearGradient id="bgGradient" x1="0" y1="0" x2="0" y2="1">
            <stop offset="0%" stop-color="#334155"/>
            <stop offset="100%" stop-color="#0f172a"/>
        </linearGradient>
    </defs>

    <rect width="24" height="24" rx="4" fill="url(#bgGradient)"/>

    <path fill="none" stroke="#cbd5e1" stroke-width="1.5" stroke-linecap="round" stroke-linejoin="round"
          d="M6 13.5V3.75m0 9.75a1.5 1.5 0 0 1 0 3m0-3a1.5 1.5 0 0 0 0 3m0 3.75V16.5m12-3V3.75m0 9.75a1.5 1.5 0 0 1 0 3m0-3a1.5 1.5 0 0 0 0 3m0 3.75V16.5m-6-9V3.75m0 3.75a1.5 1.5 0 0 1 0 3m0-3a1.5 1.5 0 0 0 0 3m0 9.75V10.5"/>

    <circle cx="6" cy="15" r="1.5" fill="#06b6d4"/>
    <circle cx="12" cy="9" r="1.5" fill="#06b6d4"/>
    <circle cx="18" cy="15" r="1.5" fill="#06b6d4"/>
</svg>